<svg width="26" height="26" viewBox="0 0 26 26" fill="none" xmlns="http://www.w3.org/2000/svg">
<path fill-rule="evenodd" clip-rule="evenodd" d="M10.7956 20.0158C10.7956 22.7206 8.6032 24.913 5.8972 24.913C3.1936 24.913 1 22.7206 1 20.0158C1 17.311 3.1936 15.1174 5.8972 15.1174C8.6032 15.1174 10.7956 17.311 10.7956 20.0158Z" stroke="#130F26" stroke-width="1.5" stroke-linecap="round" stroke-linejoin="round"/>
<path fill-rule="evenodd" clip-rule="evenodd" d="M25.0007 20.0158C25.0007 22.7206 22.8071 24.913 20.1023 24.913C17.3975 24.913 15.2051 22.7206 15.2051 20.0158C15.2051 17.311 17.3975 15.1174 20.1023 15.1174C22.8071 15.1174 25.0007 17.311 25.0007 20.0158Z" stroke="#130F26" stroke-width="1.5" stroke-linecap="round" stroke-linejoin="round"/>
<path fill-rule="evenodd" clip-rule="evenodd" d="M10.7956 5.8984C10.7956 8.6032 8.6032 10.7968 5.8972 10.7968C3.1936 10.7968 1 8.6032 1 5.8984C1 3.1936 3.1936 1 5.8972 1C8.6032 1 10.7956 3.1936 10.7956 5.8984Z" stroke="#130F26" stroke-width="1.5" stroke-linecap="round" stroke-linejoin="round"/>
<path fill-rule="evenodd" clip-rule="evenodd" d="M25.0007 5.8984C25.0007 8.6032 22.8071 10.7968 20.1023 10.7968C17.3975 10.7968 15.2051 8.6032 15.2051 5.8984C15.2051 3.1936 17.3975 1 20.1023 1C22.8071 1 25.0007 3.1936 25.0007 5.8984Z" stroke="#130F26" stroke-width="1.5" stroke-linecap="round" stroke-linejoin="round"/>
</svg>
