<svg width="32" height="32" viewBox="0 0 32 32" fill="none" xmlns="http://www.w3.org/2000/svg">
<g clip-path="url(#clip0_21_1860)">
<path d="M20.2655 32C20.5483 32 20.8196 31.8796 21.0197 31.6653C21.2197 31.4509 21.3321 31.1602 21.3321 30.8571C21.3321 30.554 21.2197 30.2633 21.0197 30.049C20.8196 29.8347 20.5483 29.7143 20.2655 29.7143H6.39962C5.2681 29.7143 4.18292 29.2327 3.38281 28.3753C2.5827 27.518 2.13321 26.3553 2.13321 25.1429V6.85714C2.13321 5.64472 2.5827 4.48196 3.38281 3.62465C4.18292 2.76735 5.2681 2.28571 6.39962 2.28571H20.2655C20.5483 2.28571 20.8196 2.16531 21.0197 1.95098C21.2197 1.73665 21.3321 1.44596 21.3321 1.14286C21.3321 0.839753 21.2197 0.549063 21.0197 0.334735C20.8196 0.120408 20.5483 0 20.2655 0H6.39962C4.70233 0 3.07457 0.722447 1.87441 2.00841C0.674244 3.29437 0 5.03852 0 6.85714V25.1429C0 26.9615 0.674244 28.7056 1.87441 29.9916C3.07457 31.2776 4.70233 32 6.39962 32H20.2655ZM22.7101 7.19086C22.8092 7.08443 22.9269 6.99999 23.0565 6.94237C23.1861 6.88476 23.325 6.8551 23.4653 6.8551C23.6056 6.8551 23.7445 6.88476 23.8741 6.94237C24.0036 6.99999 24.1213 7.08443 24.2204 7.19086L31.6866 15.1909C31.786 15.297 31.8648 15.4231 31.9186 15.562C31.9723 15.7008 32 15.8497 32 16C32 16.1503 31.9723 16.2992 31.9186 16.438C31.8648 16.5769 31.786 16.703 31.6866 16.8091L24.2204 24.8091C24.1213 24.9154 24.0035 24.9997 23.874 25.0572C23.7444 25.1147 23.6055 25.1443 23.4653 25.1443C23.325 25.1443 23.1861 25.1147 23.0566 25.0572C22.927 24.9997 22.8093 24.9154 22.7101 24.8091C22.6109 24.7029 22.5323 24.5767 22.4786 24.4379C22.4249 24.2991 22.3973 24.1503 22.3973 24C22.3973 23.8497 22.4249 23.7009 22.4786 23.5621C22.5323 23.4233 22.6109 23.2971 22.7101 23.1909L28.3567 17.1429H9.59943C9.31655 17.1429 9.04525 17.0225 8.84523 16.8081C8.6452 16.5938 8.53282 16.3031 8.53282 16C8.53282 15.6969 8.6452 15.4062 8.84523 15.1919C9.04525 14.9776 9.31655 14.8571 9.59943 14.8571H28.3567L22.7101 8.80914C22.6108 8.70298 22.532 8.57687 22.4782 8.43802C22.4244 8.29917 22.3968 8.15033 22.3968 8C22.3968 7.84968 22.4244 7.70083 22.4782 7.56198C22.532 7.42313 22.6108 7.29702 22.7101 7.19086Z" fill="black"/>
</g>
<defs>
<clipPath id="clip0_21_1860">
<rect width="32" height="32" fill="white"/>
</clipPath>
</defs>
</svg>
