<svg width="34" height="34" viewBox="0 0 34 34" fill="none" xmlns="http://www.w3.org/2000/svg">
<path fill-rule="evenodd" clip-rule="evenodd" d="M9.34116 25.9282C15.0453 25.0948 18.9728 25.1665 24.6845 25.9573C25.0981 26.0173 25.4761 26.2249 25.7486 26.5418C26.0211 26.8587 26.1697 27.2636 26.167 27.6815C26.167 28.0815 26.0295 28.4698 25.7812 28.7732C25.3483 29.302 24.9049 29.8221 24.4512 30.3332H26.652C26.7903 30.1682 26.9295 29.9998 27.0703 29.829C27.5646 29.2228 27.8343 28.4645 27.8337 27.6823C27.8337 25.9948 26.602 24.5407 24.9128 24.3073C19.0662 23.4982 14.9795 23.4207 9.10033 24.2798C7.39366 24.529 6.16699 26.0057 6.16699 27.7048C6.16699 28.459 6.41283 29.2048 6.87866 29.809C7.01616 29.9873 7.15199 30.1623 7.28699 30.334H9.43449C9.01234 29.8286 8.60059 29.3146 8.19949 28.7923C7.96113 28.4797 7.83254 28.0972 7.83366 27.704C7.83366 26.8065 8.47866 26.054 9.34116 25.9282ZM17.0003 17.8332C17.6569 17.8332 18.3071 17.7038 18.9137 17.4526C19.5204 17.2013 20.0716 16.833 20.5359 16.3687C21.0002 15.9044 21.3685 15.3532 21.6197 14.7466C21.871 14.14 22.0003 13.4898 22.0003 12.8332C22.0003 12.1766 21.871 11.5264 21.6197 10.9198C21.3685 10.3131 21.0002 9.76193 20.5359 9.29764C20.0716 8.83334 19.5204 8.46505 18.9137 8.21377C18.3071 7.9625 17.6569 7.83317 17.0003 7.83317C15.6742 7.83317 14.4025 8.35995 13.4648 9.29764C12.5271 10.2353 12.0003 11.5071 12.0003 12.8332C12.0003 14.1593 12.5271 15.431 13.4648 16.3687C14.4025 17.3064 15.6742 17.8332 17.0003 17.8332ZM17.0003 19.4998C18.7684 19.4998 20.4641 18.7975 21.7144 17.5472C22.9646 16.297 23.667 14.6013 23.667 12.8332C23.667 11.0651 22.9646 9.36937 21.7144 8.11913C20.4641 6.86888 18.7684 6.1665 17.0003 6.1665C15.2322 6.1665 13.5365 6.86888 12.2863 8.11913C11.036 9.36937 10.3337 11.0651 10.3337 12.8332C10.3337 14.6013 11.036 16.297 12.2863 17.5472C13.5365 18.7975 15.2322 19.4998 17.0003 19.4998Z" fill="black"/>
<path fill-rule="evenodd" clip-rule="evenodd" d="M17.0002 31.9999C25.2843 31.9999 32.0002 25.2841 32.0002 16.9999C32.0002 8.71575 25.2843 1.99992 17.0002 1.99992C8.716 1.99992 2.00016 8.71575 2.00016 16.9999C2.00016 25.2841 8.716 31.9999 17.0002 31.9999ZM17.0002 33.6666C26.2052 33.6666 33.6668 26.2049 33.6668 16.9999C33.6668 7.79492 26.2052 0.333252 17.0002 0.333252C7.79516 0.333252 0.333496 7.79492 0.333496 16.9999C0.333496 26.2049 7.79516 33.6666 17.0002 33.6666Z" fill="black"/>
</svg>
